<?xml version="1.0" encoding="UTF-8"?>
<svg width="439px" height="439px" viewBox="0 0 439 439" xmlns="http://www.w3.org/2000/svg" xmlns:xlink="http://www.w3.org/1999/xlink" version="1.1">
 <!-- Generated by Pixelmator Pro 2.1.2 -->
 <g id="group">
  <path id="Path" d="M409.133 109.203 C389.525 75.611 362.928 49.014 329.335 29.407 295.736 9.801 259.058 0 219.273 0 179.492 0 142.803 9.801 109.21 29.407 75.615 49.011 49.018 75.608 29.41 109.203 9.801 142.8 -0 179.489 -0 219.267 -0 259.047 9.804 295.73 29.407 329.329 49.014 362.921 75.611 389.518 109.206 409.127 142.803 428.732 179.489 438.534 219.269 438.534 259.049 438.534 295.739 428.732 329.334 409.127 362.927 389.525 389.523 362.921 409.129 329.329 428.732 295.733 438.532 259.045 438.532 219.267 438.533 179.485 428.732 142.795 409.133 109.203 Z M209.592 337.621 C205.976 341.234 201.694 343.041 196.745 343.041 191.605 343.041 187.228 341.234 183.611 337.621 183.611 337.621 92.914 247.588 92.914 247.588 89.298 243.976 87.49 239.69 87.49 234.741 87.49 229.601 89.299 225.224 92.914 221.607 L118.611 195.914 C122.228 192.298 126.605 190.49 131.745 190.49 136.694 190.49 140.976 192.299 144.592 195.914 L196.27 247.588 312.946 130.914 C316.556 127.298 320.844 125.49 325.793 125.49 330.934 125.49 335.314 127.299 338.928 130.914 L364.621 156.607 C368.238 160.224 370.049 164.601 370.049 169.741 370.049 174.689 368.238 178.976 364.621 182.588 Z" fill="#ffffff" fill-opacity="1" stroke="none"/>
 </g>
</svg>
